<svg xmlns="http://www.w3.org/2000/svg" width="720" height="720" viewBox="0 0 720 720" fill="none" role="img" aria-label="صورة الخدمة">
  <defs>
    <linearGradient id="bg" x1="0" y1="0" x2="720" y2="720" gradientUnits="userSpaceOnUse">
      <stop stop-color="#0EA5E9"/>
      <stop offset="1" stop-color="#059669"/>
    </linearGradient>
    <linearGradient id="card" x1="160" y1="200" x2="560" y2="560" gradientUnits="userSpaceOnUse">
      <stop stop-color="#ffffff" stop-opacity="0.22"/>
      <stop offset="1" stop-color="#ffffff" stop-opacity="0.06"/>
    </linearGradient>
  </defs>
  <rect width="720" height="720" fill="url(#bg)"/>
  <circle cx="600" cy="120" r="180" fill="#ffffff" opacity="0.08"/>
  <circle cx="120" cy="620" r="220" fill="#ffffff" opacity="0.06"/>
  <rect x="150" y="190" width="420" height="340" rx="32" fill="url(#card)" stroke="#ffffff" stroke-opacity="0.25" stroke-width="2"/>
  <g fill="#ffffff" opacity="0.95">
    <path d="M360 250c-44 0-80 36-80 80 0 60 80 130 80 130s80-70 80-130c0-44-36-80-80-80Zm0 110a30 30 0 1 1 0-60 30 30 0 0 1 0 60Z"/>
  </g>
  <text x="360" y="600" text-anchor="middle" font-family="Arial, Helvetica, sans-serif" font-size="34" font-weight="700" fill="#ffffff">خدمات تسليك وعزل الكويت</text>
  <text x="360" y="645" text-anchor="middle" font-family="Arial, Helvetica, sans-serif" font-size="22" fill="#ffffff" opacity="0.8">صورة مؤقتة — استبدلها بصورة حقيقية</text>
</svg>
